<svg id="Layer_1" data-name="Layer 1" xmlns="http://www.w3.org/2000/svg" width="150" height="150" viewBox="0 0 150 150"><defs><style>.cls-1{fill:#ef6c02;}.cls-2{fill:none;stroke:#ff9701;stroke-miterlimit:10;stroke-dasharray:1 1;}.cls-3{fill:#fff;}</style></defs><title>star</title><rect class="cls-1" x="-0.17" y="34.7" width="186.67" height="22.46" transform="translate(44.31 -45.73) rotate(35.7)"/><rect class="cls-2" x="2.03" y="36.7" width="182.45" height="18.35" transform="translate(44.3 -45.8) rotate(35.7)"/><path class="cls-3" d="M60,22.56c-.83-1.4-1.38-2.75-.48-4a2.63,2.63,0,0,1,3.76-.39A3.44,3.44,0,0,1,64.62,21l-.74,0a2.67,2.67,0,0,0-1.06-2.21,1.86,1.86,0,0,0-2.73.23c-.73,1-.12,2.13.68,3.49s1.11,2.59.32,3.7a2.79,2.79,0,0,1-4,.43,3.63,3.63,0,0,1-1.34-3.51l.79.07a2.77,2.77,0,0,0,1,2.84,2,2,0,0,0,3-.27C61.21,24.73,60.62,23.67,60,22.56Z"/><path class="cls-3" d="M64.45,23.6l1.16.83,1.24-1.72.61.43-1.24,1.73L68,26.18l-.4.56-1.82-1.31L63.5,28.67c-.43.59-.59,1.25.14,1.77a2,2,0,0,0,1,.33l-.15.7A2.81,2.81,0,0,1,63.19,31a1.78,1.78,0,0,1-.39-2.69L65.21,25,64,24.16Z"/><path class="cls-3" d="M72.31,32l-2.52,3.52-.55-.4.66-.93a3.18,3.18,0,0,1-2.79-.38,2.3,2.3,0,0,1-.65-3.21,2.4,2.4,0,0,1,3.43-.28,4,4,0,0,1,1.42,1.79l.29-.4a1.75,1.75,0,0,0-.48-2.66,4.47,4.47,0,0,0-2.1-.77l.11-.72a5.07,5.07,0,0,1,2.41.88A2.39,2.39,0,0,1,72.31,32Zm-2,1.54.65-.91A3.86,3.86,0,0,0,69.55,31a1.74,1.74,0,0,0-2.45.09,1.6,1.6,0,0,0,.59,2.26A2.86,2.86,0,0,0,70.28,33.58Z"/><path class="cls-3" d="M78.28,33.54l-.68.4a1.93,1.93,0,0,0-.62-.65,2.09,2.09,0,0,0-2.11.06l-2.78,3.86-.61-.44,3.85-5.35.55.39-.62.87a2.21,2.21,0,0,1,2.29.12A2.85,2.85,0,0,1,78.28,33.54Z"/><path class="cls-3" d="M85.5,42.78A3.36,3.36,0,1,1,84.8,38,3.35,3.35,0,0,1,85.5,42.78Zm-.64-.45a2.58,2.58,0,1,0-3.68.71A2.54,2.54,0,0,0,84.86,42.33Z"/><path class="cls-3" d="M91.69,46.11l-2.45,3.42-.62-.44L91,45.77a1.72,1.72,0,0,0-.38-2.66,2.36,2.36,0,0,0-2.52,0l-2.66,3.7-.61-.43L88.69,41l.55.4-.7,1a2.54,2.54,0,0,1,2.64.2A2.37,2.37,0,0,1,91.69,46.11Z"/><path class="cls-3" d="M101.34,51.68l2.85,2-2.42,3.36a5.92,5.92,0,0,1-4-1.22,5.24,5.24,0,0,1,6.11-8.5A4.83,4.83,0,0,1,106,50.67l-.73.09a4.08,4.08,0,0,0-1.85-2.8,4.24,4.24,0,0,0-6,1.19,4.19,4.19,0,0,0,.79,6.11,5,5,0,0,0,3.19,1.12l1.8-2.52-2.24-1.61Z"/><path class="cls-3" d="M106.65,53.92l.61.44-3.85,5.36-.61-.44Zm1.89-2a.58.58,0,0,1,.13.81.57.57,0,0,1-.8.13.59.59,0,0,1-.14-.81A.6.6,0,0,1,108.54,51.93Z"/><path class="cls-3" d="M108.6,55.32l1.16.84L111,54.43l.61.44-1.24,1.73,1.82,1.31-.4.56L110,57.16l-2.32,3.23c-.44.6-.59,1.26.14,1.78a2,2,0,0,0,1,.33l-.15.7a2.89,2.89,0,0,1-1.28-.45,1.77,1.77,0,0,1-.39-2.68l2.41-3.35-1.17-.83Z"/><path class="cls-3" d="M121.14,60l.61.44-5.91,8.22-.61-.44,2.83-3.94-4.74-3.4-2.82,3.94-.62-.44,5.91-8.22.61.44-2.67,3.72,4.73,3.4Z"/><path class="cls-3" d="M119.12,68.06l2.45-3.41.61.43-2.39,3.33a1.71,1.71,0,0,0,.39,2.66,2.34,2.34,0,0,0,2.5,0l2.67-3.73.61.44-3.84,5.36-.56-.4.69-1a2.56,2.56,0,0,1-2.62-.22A2.36,2.36,0,0,1,119.12,68.06Z"/><path class="cls-3" d="M124,74.51l6.38-8.88.6.43-3.14,4.37a2.8,2.8,0,0,1,2.65.41,3.48,3.48,0,0,1-4.06,5.64A2.82,2.82,0,0,1,125.2,74l-.65.91Zm1.76-1.16a2.68,2.68,0,0,0,1.1,2.53,2.74,2.74,0,0,0,3.19-4.44,2.66,2.66,0,0,0-2.74-.25Z"/></svg>